<svg width="4001" height="389" viewBox="0 0 4001 389" fill="none" xmlns="http://www.w3.org/2000/svg">
<path d="M3769.32 300.719L3762.59 303.014V310.125V367.686H3659.63V25.4223H3772.52H3858.22C3908.49 25.4223 3941.37 40.5031 3961.63 60.3931C3982.01 80.3913 3990.53 106.104 3990.53 128.942C3990.53 149.111 3989.56 169.381 3979.13 189.279C3968.79 208.996 3948.42 229.679 3906.88 248.587C3863.4 268.383 3812.43 286.017 3769.32 300.719ZM3772.52 94.5561H3762.59V104.494V217.721V232.36L3776.19 226.958L3828.73 206.096L3828.81 206.064L3828.89 206.031C3847.75 198.16 3861.29 190.178 3869.93 179.801C3878.98 168.931 3881.73 156.628 3881.73 142.543C3881.73 115.688 3859.92 94.5561 3833.92 94.5561H3772.52Z" stroke="white" stroke-width="19.8758"/>
<path d="M2521.27 358.744C2488.22 346.114 2462 327.487 2450.17 302.029L2534.73 270.949C2537.99 275.663 2543.15 281.688 2551 287.617C2566.83 299.59 2592.84 310.596 2634.46 310.596C2655.18 310.596 2670.96 307.792 2681.91 302.037C2693.53 295.93 2699.9 286.276 2699.9 274.519C2699.9 258.919 2686.59 250.021 2675.17 244.819C2662.94 239.243 2647.22 235.326 2633.26 231.929C2624.09 229.699 2615.48 227.75 2607.28 225.894C2570.42 217.55 2541.82 211.076 2508.2 189.302C2497.79 182.563 2489.06 171.737 2482.91 159.538C2476.75 147.314 2473.6 134.549 2473.6 124.606C2473.6 90.8327 2487.05 63.4976 2513.36 44.2731C2540.05 24.7645 2580.87 13 2636.31 13C2670.34 13 2707.23 17.9363 2737.22 31.1694C2764.31 43.1261 2785.1 61.4872 2793.99 88.7716L2709.11 119.971C2706.91 115.866 2703.63 110.934 2698.84 106.027C2687.28 94.1841 2667.83 83.4213 2636.31 83.4213C2620.88 83.4213 2606.54 85.5984 2595.66 90.386C2584.92 95.1142 2575.11 103.71 2575.11 117.154C2575.11 134.196 2589.67 142.946 2600.14 147.238C2609.58 151.105 2620.15 153.196 2626.06 154.365C2627.15 154.58 2628.08 154.765 2628.82 154.923C2632.94 155.808 2637.72 156.783 2642.98 157.858C2656.68 160.654 2673.7 164.127 2691.11 168.458C2715.37 174.491 2738.96 181.861 2754.05 190.575C2775.35 202.869 2787.51 215.972 2794.42 228.158C2801.33 240.338 2803.34 252.234 2803.34 262.684C2803.34 275.636 2802.6 288.024 2798.56 300.461C2794.57 312.749 2787.17 325.601 2773.11 339.005C2748.24 362.719 2708 378.435 2634.46 378.435C2600.38 378.435 2557.74 372.682 2521.27 358.744Z" stroke="white" stroke-width="19.8758"/>
<path d="M2979.98 232.998H2970.04V242.935V367.697H2862.11V25.4223H2970.04V148.961V158.899H2979.98H3052.2H3062.14V148.961V25.4223H3171.82V367.697H3062.14V242.935V232.998H3052.2H2979.98Z" stroke="white" stroke-width="19.8758"/>
<mask id="path-4-inside-1_2561_9869" fill="white">
<path fill-rule="evenodd" clip-rule="evenodd" d="M3414.91 388.155C3521.25 388.155 3607.45 301.949 3607.45 195.609C3607.45 89.2682 3521.25 3.06213 3414.91 3.06213C3308.57 3.06213 3222.36 89.2682 3222.36 195.609C3222.36 301.949 3308.57 388.155 3414.91 388.155ZM3414.91 272.1C3457.15 272.1 3491.4 237.854 3491.4 195.609C3491.4 153.364 3457.15 119.118 3414.91 119.118C3372.66 119.118 3338.42 153.364 3338.42 195.609C3338.42 237.854 3372.66 272.1 3414.91 272.1Z"/>
</mask>
<path d="M3587.58 195.609C3587.58 290.972 3510.27 368.28 3414.91 368.28V408.031C3532.22 408.031 3627.33 312.926 3627.33 195.609H3587.58ZM3414.91 22.9379C3510.27 22.9379 3587.58 100.245 3587.58 195.609H3627.33C3627.33 78.2911 3532.22 -16.8136 3414.91 -16.8136V22.9379ZM3242.24 195.609C3242.24 100.245 3319.54 22.9379 3414.91 22.9379V-16.8136C3297.59 -16.8136 3202.48 78.2911 3202.48 195.609H3242.24ZM3414.91 368.28C3319.54 368.28 3242.24 290.972 3242.24 195.609H3202.48C3202.48 312.926 3297.59 408.031 3414.91 408.031V368.28ZM3471.52 195.609C3471.52 226.876 3446.17 252.224 3414.91 252.224V291.976C3468.13 291.976 3511.27 248.831 3511.27 195.609H3471.52ZM3414.91 138.993C3446.17 138.993 3471.52 164.341 3471.52 195.609H3511.27C3511.27 142.387 3468.13 99.2418 3414.91 99.2418V138.993ZM3358.29 195.609C3358.29 164.341 3383.64 138.993 3414.91 138.993V99.2418C3361.68 99.2418 3318.54 142.387 3318.54 195.609H3358.29ZM3414.91 252.224C3383.64 252.224 3358.29 226.876 3358.29 195.609H3318.54C3318.54 248.831 3361.68 291.976 3414.91 291.976V252.224Z" fill="white" mask="url(#path-4-inside-1_2561_9869)"/>
<path d="M1304.4 3.06213C1191.08 3.06213 1131.75 51.0473 1131.75 124.606C1131.75 148.174 1146.37 181.772 1170.88 197.643C1213.8 225.437 1249.7 229.589 1298.99 241.585C1327.31 248.478 1358.05 256.453 1358.05 274.519C1358.05 289.59 1342.74 300.658 1302.55 300.658C1222.97 300.658 1207.28 258.721 1207.28 258.721L1105.35 296.185C1126.96 364.847 1232.55 388.373 1302.55 388.373C1377.36 388.373 1420.58 372.397 1448.06 346.197C1478.42 317.247 1481.37 289.213 1481.37 262.684C1481.37 239.117 1472.22 208.015 1427.11 181.969C1394.29 163.02 1327.94 151.424 1298.99 145.207C1288.15 142.878 1253.14 137.783 1253.14 117.154C1253.14 101.755 1275.02 93.3592 1304.4 93.3592C1362.44 93.3592 1371.7 132.579 1371.7 132.579L1474.06 94.956C1458.04 23.1387 1373.99 3.06213 1304.4 3.06213ZM1642.65 4.80675L1519.85 49.9494H1519.81V373.775H1642.66L1642.65 4.80675ZM0 11.6247V373.764H122.835V306.265C165.889 291.582 217.312 273.801 261.31 253.772C347.165 214.687 350.78 165.783 350.78 125.082C350.78 74.6478 313.197 11.6247 208.534 11.6247H122.835H0ZM385.945 11.6247V373.775H705.229V284.532H508.78V236.591H662.895V147.585H508.78V100.634L701.753 100.631V11.6247H385.945ZM758.459 11.6247V373.764H881.293V306.265C924.348 291.582 975.771 273.801 1019.77 253.772C1105.62 214.687 1109.24 165.783 1109.24 125.082C1109.24 74.6478 1071.66 11.6247 966.992 11.6247H881.293H758.459ZM122.835 100.634H184.229C204.808 100.634 222.101 117.38 222.101 138.684C222.101 164.086 212.355 177.567 175.373 193L122.835 213.861V100.634ZM881.293 100.634H942.688C963.266 100.634 980.56 117.38 980.56 138.684C980.56 164.086 970.814 177.567 933.831 193L881.293 213.861V100.634Z" fill="white"/>
<path fill-rule="evenodd" clip-rule="evenodd" d="M2229.81 385.671C2336.15 385.671 2422.36 299.465 2422.36 193.124C2422.36 86.7837 2336.15 0.577637 2229.81 0.577637C2123.47 0.577637 2037.27 86.7837 2037.27 193.124C2037.27 299.465 2123.47 385.671 2229.81 385.671ZM2229.81 269.615C2272.06 269.615 2306.3 235.369 2306.3 193.124C2306.3 150.879 2272.06 116.633 2229.81 116.633C2187.57 116.633 2153.32 150.879 2153.32 193.124C2153.32 235.369 2187.57 269.615 2229.81 269.615Z" fill="white"/>
<path fill-rule="evenodd" clip-rule="evenodd" d="M2024.84 299.91C1990.32 351.615 1931.43 385.671 1864.6 385.671C1758.26 385.671 1672.05 299.465 1672.05 193.124C1672.05 86.7837 1758.26 0.577637 1864.6 0.577637C1931.73 0.577637 1990.85 34.939 2025.31 87.0348L1908.28 130.324C1895.89 121.694 1880.84 116.633 1864.6 116.633C1822.35 116.633 1788.11 150.879 1788.11 193.124C1788.11 235.369 1822.35 269.615 1864.6 269.615C1880.48 269.615 1895.23 264.775 1907.46 256.488L2024.84 299.91Z" fill="white"/>
</svg>
